Coordinates
version=1
nRows=6
nColumns=36
inDegrees=yes

Units are S.I. units (second, meters, Newtons, ...)
If the header above contains a line with 'inDegrees', this indicates whether rotational values are in degrees (yes) or radians (no).

endheader
time	pelvis_tilt	pelvis_list	pelvis_rotation	pelvis_tx	pelvis_ty	pelvis_tz	hip_flexion_r	hip_adduction_r	hip_rotation_r	knee_angle_r	knee_angle_r_beta	ankle_angle_r	subtalar_angle_r	mtp_angle_r	hip_flexion_l	hip_adduction_l	hip_rotation_l	knee_angle_l	knee_angle_l_beta	ankle_angle_l	subtalar_angle_l	mtp_angle_l	lumbar_extension	lumbar_bending	lumbar_rotation	arm_flex_r	arm_add_r	arm_rot_r	elbow_flex_r	pro_sup_r	arm_flex_l	arm_add_l	arm_rot_l	elbow_flex_l	pro_sup_l
      0.00000000	     -1.15682666	     -1.15236273	     15.72559162	      0.01245662	      1.26751541	      0.06616890	      0.96694807	     -1.54248452	     -2.28304926	      2.13183811	      0.03720759	      2.34449726	    -19.38801274	     -6.63729237	      6.90706711	      1.35004726	      4.70842337	     10.90842766	      0.19038798	      3.56092401	    -13.67334379	     -6.63729237	     -5.59018922	     -0.32314733	     -8.97885957	     -5.74476613	    -14.50223616	     20.16779263	     45.48264427	     75.29633909	    -13.22825813	    -17.13967477	     25.70819851	     30.88414031	     60.66855273
      0.01666670	     -2.31461001	     -2.23547242	     15.64683156	      0.01462833	      1.26590906	      0.06554520	      2.58217336	     -0.66626733	     -2.34955352	      2.57166568	      0.04488403	      3.90094594	    -17.45558341	     -6.99832714	      8.70779195	      0.87820890	      3.71538535	     11.44485117	      0.19975034	      4.18289747	    -12.66904991	     -6.99832714	     -3.14267698	      0.40783257	     -8.55746846	     -8.71528808	    -16.12582809	     19.79313021	     50.41394209	     82.28592506	    -14.26428367	    -17.39015227	     26.76224362	     31.77187130	     64.56698145
      0.03333330	     -3.08987521	     -1.86403208	     15.10658116	      0.01508931	      1.26260616	      0.06666558	      3.30901177	     -1.26785144	     -2.46933499	      2.68659578	      0.04688994	      4.46920500	    -17.01689347	     -7.10735598	      9.47175155	      1.37387036	      2.28045189	     11.88480635	      0.20742900	      4.93764713	    -11.56428583	     -7.10735598	     -2.23996044	     -0.59396005	     -8.17163265	     -9.15671930	    -16.36000628	     21.17722226	     50.46219761	     82.57001565	    -15.34556213	    -18.79784040	     26.52822608	     34.51506888	     65.57260214
      0.05000000	     -3.18460531	     -1.34854665	     14.89946494	      0.02296827	      1.26587592	      0.07057628	      3.10201305	     -1.71988643	     -2.78802506	      2.52317554	      0.04403772	      5.06791590	    -16.34586601	     -7.12215244	      8.87743780	      1.65197644	      1.37172639	     11.20332096	      0.19553484	      4.72542214	    -11.56967580	     -7.12215244	     -1.97515266	     -1.59233270	     -7.67569918	    -10.89348906	    -16.73957000	     21.59735156	     51.46959204	     83.06622144	    -15.77102383	    -20.65104858	     25.91758140	     37.96434446	     66.31372616
      0.06666670	     -3.60633548	     -1.06559101	     14.47765220	      0.01588530	      1.26530961	      0.06745389	      3.36932660	     -2.15612217	     -3.01394899	      2.10612610	      0.03675883	      5.21845496	    -15.84561804	     -7.12760709	      8.89804540	      2.06612055	      0.73210390	     10.71168429	      0.18695416	      4.89040123	    -11.50096028	     -7.12760709	     -1.69921544	     -2.02910867	     -6.68047754	    -11.58253235	    -17.40567924	     22.52021637	     50.97245774	     83.43363202	    -15.31692055	    -21.58048690	     25.60722086	     39.34469817	     66.62080293
      0.08333330	     -3.75970871	     -0.88284812	     13.98437736	      0.00930993	      1.26481586	      0.07106143	      3.93407141	     -2.35088450	     -2.81042404	      2.25480232	      0.03935372	      5.46327684	    -15.58296363	     -7.26674047	      9.16434397	      2.21411269	      0.01629463	     10.74431508	      0.18752367	      4.94258037	    -11.68775010	     -7.26674047	     -2.03297239	     -2.32688510	     -7.15083182	    -10.13406563	    -18.74300880	     25.77059473	     50.94539496	     87.15992433	    -16.21261914	    -22.53888385	     22.74042410	     43.24500185	     73.22064110
